# xmcd CD database file
#
# Track frame offsets:
#	150
#	9317
#	65594
#	101571
#	106131
#	122915
#	135267
#	145977
#	163827
#	182224
#	200426
#	206212
#	213629
#	222797
#	230882
#
# Disc length: 4314 seconds
#
# Revision: 0
# Processed by: cddbd v1.5.2PL0 Copyright (c) Steve Scherf et al.
# Submitted via: CDex 1.70beta2
#
DISCID=e710d80f
DTITLE=SoundShift - Second
DYEAR=1900
DGENRE=Jazz
TTITLE0=Scuttlebuttin'
TTITLE1=Das Mark-Stück
TTITLE2=Blood On the Dancefloor - Bad
TTITLE3=Minute for Malcolm
TTITLE4=Lady Marmelade
TTITLE5=Pamphlet - Brief
TTITLE6=Jesus and Venus
TTITLE7=Garlic - Shift
TTITLE8=Heaven In My Hands
TTITLE9=Decoy
TTITLE10=The Streets Of San Francisco
TTITLE11=Booby Trap
TTITLE12=Scuttlebuttin' - Shift
TTITLE13=The James Bond Theme
TTITLE14=Rye
EXTD=
EXTT0=
EXTT1=
EXTT2=
EXTT3=
EXTT4=
EXTT5=
EXTT6=
EXTT7=
EXTT8=
EXTT9=
EXTT10=
EXTT11=
EXTT12=
EXTT13=
EXTT14=
PLAYORDER=
